<svg xmlns="http://www.w3.org/2000/svg" viewBox="0 0 350 330"><path d="M225.88 258.06H82.68a11.62 11.62 0 00-11.57 11.61v19.75h166.33v-19.76a11.62 11.62 0 00-11.56-11.61" fill="#a67ee5"/><path d="M225.88 258.06H82.68a11.62 11.62 0 00-11.57 11.61v19.75h166.33v-19.76a11.62 11.62 0 00-11.56-11.6z" fill="none" stroke="#fff" stroke-miterlimit="10" stroke-width="2"/><path d="M267.11 258.06H119.23a11.81 11.81 0 00-11.93 11.61v19.75H279v-19.76a11.81 11.81 0 00-11.93-11.61" fill="#a67ee5"/><path d="M267.11 258.06H119.23a11.81 11.81 0 00-11.93 11.61v19.75H279v-19.76a11.81 11.81 0 00-11.89-11.6z" fill="none" stroke="#fff" stroke-miterlimit="10" stroke-width="2"/><path d="M278.74 279.41a5.34 5.34 0 10-5.32-5.34 5.32 5.32 0 005.32 5.34" fill="#a67ee5"/><ellipse cx="278.74" cy="274.07" rx="5.31" ry="5.34" fill="none" stroke="#fff" stroke-miterlimit="10" stroke-width="2"/><path d="M277.62 269.66v9.75h-10.73a5.72 5.72 0 01-5.71-5.73v-15.62h4.88a11.61 11.61 0 0111.56 11.61" fill="#a67ee5"/><path d="M277.62 269.66v9.75h-10.73a5.72 5.72 0 01-5.71-5.73v-15.62h4.88a11.61 11.61 0 0111.56 11.6z" fill="none" stroke="#fff" stroke-miterlimit="10" stroke-width="2"/><path d="M280.29 318.62a5.72 5.72 0 10-5.12-5.69 5.43 5.43 0 005.12 5.69" fill="#a67ee5"/><ellipse cx="280.29" cy="312.93" rx="5.12" ry="5.69" fill="none" stroke="#fff" stroke-miterlimit="10" stroke-width="2"/><path d="M230.22 328.86h-148a11.85 11.85 0 01-11.95-11.67V289h171.89v28.17a11.84 11.84 0 01-11.94 11.67" fill="#a67ee5"/><path d="M230.22 328.86h-148a11.85 11.85 0 01-11.95-11.67V289h171.89v28.17a11.84 11.84 0 01-11.94 11.69z" fill="none" stroke="#fff" stroke-miterlimit="10" stroke-width="2"/><path d="M266.72 328.86h-147a11.81 11.81 0 01-11.87-11.67V289h170.73v28.17a11.79 11.79 0 01-11.86 11.67" fill="#a67ee5"/><path d="M266.72 328.86h-147a11.81 11.81 0 01-11.87-11.67V289h170.73v28.17a11.79 11.79 0 01-11.86 11.69z" fill="none" stroke="#fff" stroke-miterlimit="10" stroke-width="2"/><path d="M215 314.07h-34.51a4.27 4.27 0 01-4.35-4.16v-11.7a1.24 1.24 0 011.27-1.22h2.88a1.25 1.25 0 011.27 1.22v10a1.33 1.33 0 001.35 1.29h29.71a1.33 1.33 0 001.35-1.29v-10a1.24 1.24 0 011.27-1.22h2.88a1.25 1.25 0 011.27 1.22v11.69a4.27 4.27 0 01-4.35 4.16" fill="#a67ee5"/><path d="M215 314.07h-34.51a4.27 4.27 0 01-4.35-4.16v-11.7a1.24 1.24 0 011.27-1.22h2.88a1.25 1.25 0 011.27 1.22v10a1.33 1.33 0 001.35 1.29h29.71a1.33 1.33 0 001.35-1.29v-10a1.24 1.24 0 011.27-1.22h2.88a1.25 1.25 0 011.27 1.22v11.69a4.27 4.27 0 01-4.39 4.17z" fill="none" stroke="#fff" stroke-miterlimit="10" stroke-width="2"/><path fill="#a67ee5" d="M138.58 282.19h9.1v12.52h-9.1z"/><path fill="none" stroke="#fff" stroke-miterlimit="10" stroke-width="2" d="M138.58 282.19h9.1v12.52h-9.1z"/><path fill="#a67ee5" d="M247.85 282.19h9.1v12.52h-9.1z"/><path fill="none" stroke="#fff" stroke-miterlimit="10" stroke-width="2" d="M247.85 282.19h9.1v12.52h-9.1z"/><path d="M278.58 317.11v-9.87h-10.4a5.67 5.67 0 00-5.53 5.8v15.82h4.73c6.16 0 11.2-5.29 11.2-11.75" fill="#a67ee5"/><path d="M278.58 317.11v-9.87h-10.4a5.67 5.67 0 00-5.53 5.8v15.82h4.73c6.16 0 11.2-5.28 11.2-11.75z" fill="none" stroke="#fff" stroke-miterlimit="10" stroke-width="2"/><path d="M100 301.54H79.22a1 1 0 01-1-1V298a1 1 0 011-1H100a1 1 0 011 1v2.58a1 1 0 01-1 1" fill="#a67ee5"/><path d="M100 301.54H79.22a1 1 0 01-1-1V298a1 1 0 011-1H100a1 1 0 011 1v2.58a1 1 0 01-1 .96z" fill="none" stroke="#fff" stroke-miterlimit="10" stroke-width="2"/><path fill="none" stroke="#fff" stroke-linecap="round" stroke-linejoin="round" stroke-width="2" d="M46.24 329h257.52"/></svg>