<svg xmlns="http://www.w3.org/2000/svg" viewBox="0 0 350 330">
  <path id="red-leaf" d="m 268.08875,206.68045 a 2,2 0 0 1 2.91247,2.33238 c -1.75928,6.84872 -4.28015,19.98185 2.70004,19.81394 4.98255,-0.11598 -13.10322,-33.16125 23.376,-35.81913 a 2,2 0 0 1 1.85099,3.111 c -1.61163,2.57927 -3.53567,6.261 -3.79594,9.54221 a 2,2 0 0 0 3.57844,1.3996 c 4.74776,-5.66491 16.96202,-16.10216 37.54045,-6.63571 a 2,2 0 0 1 1.17355,1.67836 c 0.39967,4.8729 1.56456,23.55221 -3.42805,28.51615 -5.74932,5.71572 -15.36269,2.47533 -17.20359,8.41971 -2.04763,6.72646 6.93805,5.61213 13.36362,1.24844 a 2,2 0 0 1 3.12081,1.99313 c -0.84432,5.39 -3.69747,13.67776 -13.09662,17.36229 -14.48563,5.6603 -22.57399,-9.52497 -24.61484,-6.61061 -3.08392,4.34892 6.96644,9.28726 12.58449,11.62546 a 2,2 0 0 1 0.21387,3.63517 c -11.30311,6.54352 -30.07925,7.03378 -36.18678,-9.42256 -6.43657,-17.39795 -11.48705,-13.82869 -15.85295,-22.24645 -4.73887,-9.14287 -1.83989,-22.87827 11.72428,-29.94775 m 25.67403,35.4895 c 0.19855,2.7683 4.7851,4.05745 7.97854,3.83523 3.19343,-0.22221 8.83794,-2.88106 8.66921,-5.64608 -0.16873,-2.76502 -6.15395,-4.60035 -9.35733,-4.37923 -3.20337,0.22112 -7.46909,3.42397 -7.27054,6.19227" fill="#e81a5a">
    <animate
      attributeName="d"
      values="m 268.08875,206.68045 a 2,2 0 0 1 2.91247,2.33238 c -1.75928,6.84872 -4.28015,19.98185 2.70004,19.81394 4.98255,-0.11598 -13.10322,-33.16125 23.376,-35.81913 a 2,2 0 0 1 1.85099,3.111 c -1.61163,2.57927 -3.53567,6.261 -3.79594,9.54221 a 2,2 0 0 0 3.57844,1.3996 c 4.74776,-5.66491 16.96202,-16.10216 37.54045,-6.63571 a 2,2 0 0 1 1.17355,1.67836 c 0.39967,4.8729 1.56456,23.55221 -3.42805,28.51615 -5.74932,5.71572 -15.36269,2.47533 -17.20359,8.41971 -2.04763,6.72646 6.93805,5.61213 13.36362,1.24844 a 2,2 0 0 1 3.12081,1.99313 c -0.84432,5.39 -3.69747,13.67776 -13.09662,17.36229 -14.48563,5.6603 -22.57399,-9.52497 -24.61484,-6.61061 -3.08392,4.34892 6.96644,9.28726 12.58449,11.62546 a 2,2 0 0 1 0.21387,3.63517 c -11.30311,6.54352 -30.07925,7.03378 -36.18678,-9.42256 -6.43657,-17.39795 -11.48705,-13.82869 -15.85295,-22.24645 -4.73887,-9.14287 -1.83989,-22.87827 11.72428,-29.94775 m 25.67403,35.4895 c 0.19855,2.7683 4.7851,4.05745 7.97854,3.83523 3.19343,-0.22221 8.83794,-2.88106 8.66921,-5.64608 -0.16873,-2.76502 -6.15395,-4.60035 -9.35733,-4.37923 -3.20337,0.22112 -7.46909,3.42397 -7.27054,6.19227;
              m 256.07893,208.16509 a 2,2 0 0 1 3.45455,1.41016 c 0.25626,7.06642 1.56532,20.37507 8.21101,18.23354 4.74486,-1.52495 -21.97375,-28.08056 12.25213,-40.97967 a 2,2 0 0 1 2.65762,2.45795 c -0.81357,2.93055 -1.61389,7.00688 -0.93247,10.2271 a 2,2 0 0 0 3.82849,0.32674 c 2.9453,-6.77921 11.69616,-20.25313 34.11484,-17.01456 a 2,2 0 0 1 1.60153,1.2764 c 1.76586,4.55924 8.18287,22.14035 4.80389,28.31687 -3.89128,7.11211 -14.02898,6.73254 -14.10759,12.95495 -0.0549,7.03101 8.24527,3.41291 13.16863,-2.5946 a 2,2 0 0 1 3.55808,1.02573 c 0.71971,5.40805 0.33535,14.16474 -7.63207,20.36472 -12.28428,9.53777 -24.34884,-2.72846 -25.4789,0.64518 -1.72324,5.04521 9.31526,6.92895 15.36586,7.57702 a 2,2 0 0 1 1.2365,3.42509 c -8.98195,9.48169 -26.84733,15.27927 -37.37311,1.23217 -11.10846,-14.85665 -14.93865,-10.00108 -21.51355,-16.83412 -7.13827,-7.42254 -8.25566,-21.41599 2.74519,-32.04358 m 34.68854,26.74633 c 0.97585,2.59819 5.73969,2.53299 8.73883,1.41382 2.99914,-1.11917 7.65726,-5.27031 6.71093,-7.87382 -0.94632,-2.60351 -7.20632,-2.66518 -10.21531,-1.54424 -3.00898,1.12094 -6.19062,5.4025 -5.21477,8.0007;
              m 268.08875,206.68045 a 2,2 0 0 1 2.91247,2.33238 c -1.75928,6.84872 -4.28015,19.98185 2.70004,19.81394 4.98255,-0.11598 -13.10322,-33.16125 23.376,-35.81913 a 2,2 0 0 1 1.85099,3.111 c -1.61163,2.57927 -3.53567,6.261 -3.79594,9.54221 a 2,2 0 0 0 3.57844,1.3996 c 4.74776,-5.66491 16.96202,-16.10216 37.54045,-6.63571 a 2,2 0 0 1 1.17355,1.67836 c 0.39967,4.8729 1.56456,23.55221 -3.42805,28.51615 -5.74932,5.71572 -15.36269,2.47533 -17.20359,8.41971 -2.04763,6.72646 6.93805,5.61213 13.36362,1.24844 a 2,2 0 0 1 3.12081,1.99313 c -0.84432,5.39 -3.69747,13.67776 -13.09662,17.36229 -14.48563,5.6603 -22.57399,-9.52497 -24.61484,-6.61061 -3.08392,4.34892 6.96644,9.28726 12.58449,11.62546 a 2,2 0 0 1 0.21387,3.63517 c -11.30311,6.54352 -30.07925,7.03378 -36.18678,-9.42256 -6.43657,-17.39795 -11.48705,-13.82869 -15.85295,-22.24645 -4.73887,-9.14287 -1.83989,-22.87827 11.72428,-29.94775 m 25.67403,35.4895 c 0.19855,2.7683 4.7851,4.05745 7.97854,3.83523 3.19343,-0.22221 8.83794,-2.88106 8.66921,-5.64608 -0.16873,-2.76502 -6.15395,-4.60035 -9.35733,-4.37923 -3.20337,0.22112 -7.46909,3.42397 -7.27054,6.19227"
      keySplines="0.3 0 0.6 1;
                  0.3 0 0.6 1"
      calcMode="spline"
      dur="1.1s"
      repeatCount="indefinite"
    />
  </path>
  <path id="red-leaf-stalk" d="M263 327.66s-4.91-70.27 5.54-80.72" fill="none" stroke="#e81a5a" stroke-miterlimit="10" stroke-width="2"/>

  <g id="clouds">
    <animate
      attributeType="CSS"
      attributeName="opacity"
      values="0; 1; 1; 0"
      keyTimes="0; 0.12; 0.73; 1"
      dur="1.4s"
      calcMode="linear"
      fill="freeze"
    />
    <animateTransform
      attributeName="transform"
      type="translate"
      values="80 0; 0 0"
      calcMode="spline"
      keySplines="0, 0.6, 0.25, 1.0"
      dur="0.4s"
      fill="freeze"
      additive="sum"
    />
    <animateTransform
      attributeName="transform"
      type="translate"
      begin="1s"
      values="0 0; 0 -50"
      calcMode="spline"
      keySplines="0.3, 0, 1.0, 0.63"
      dur="0.4s"
      fill="freeze"
      additive="sum"
    />
    <path fill="none" stroke="#fff" stroke-linecap="round" stroke-miterlimit="10" stroke-width="2" d="M65.43 77.72h39.78M85.22 67.45H57.86a12.4 12.4 0 10-24.8 0H15.13m78.35 0h22.2m156.45 77.82h39.77M300.17 135h22.2"/>
    <path d="M235.77 119h-19.45a35.49 35.49 0 00-68-13.69 26.34 26.34 0 00-12.89-3.31 26.72 26.72 0 00-24.8 17H95.48a10.49 10.49 0 000 21h140.3a10.49 10.49 0 000-21" fill="#fff"/>
  </g>

  <g id="parachute-and-suitcase" opacity="0">
    <animateMotion
      path="M -45,-160 c 24.19,-9.239997 29.8,-15.839997 29.42,-20.439997 -1.24,-15.13 -69.69,-38.78 -112.420001,-6.56 -2.93,2.21 -31.659997,24.519997 -28.999997,53.999998 3.54,39.18 59.829998,61.15 75.699998,67.35 53.65,20.94 94.43,8.79 101.78,27.18 2.89,7.25 0.78,19.69 -21.48,42.47"
      begin="0.23s"
      dur="1.67s"
      keyPoints="0; 0.09; 0.09; 1"
      keyTimes="0; 0.1983; 0.3226; 1"
      calcMode="linear"
      feel="freeze"
    />

    <animate
      attributeType="CSS"
      attributeName="opacity"
      begin="0.65s"
      to="1"
      dur="10ms"
      fill="freeze"
    />
    
    <!-- <animateTransform
      attributeName="transform"
      type="scale"
      values="0; 0.02; 1"
      keyTimes="0; 0.1; 1"
      keySplines="0 0 0.58 1.0;
                  0 0 0.58 1.0"
      begin="0.33s"
      dur="1.67s"
      fill="freeze"
    /> -->

    <animateTransform 
      attributeName="transform"
      type="rotate"
      begin="0.23s"
      calcMode="spline"
      dur="1.67s"
      values="30; 30 223 275; -30 223 275; 20 223 275; 18.29 223 275; -6.48 223 275; 0 223 275"
      keyTimes="0; 0.3227; 0.5206; 0.7025; 0.7853; 0.9504; 1"
      keySplines="0.33, 0, 0.67, 1;
                  0.33, 0, 0.67, 1;
                  0.33, 0, 0.67, 1;
                  0.33, 0, 0.67, 1;
                  0.33, 0, 0.67, 1;
                  0.17, 0, 0.83, 1"
      additive="sum"
    />

    <path d="m 251.89,328.88 a 3.54,3.54 0 0 0 3.53,-3.53 v -5.07 a 3.53,3.53 0 1 0 -7.06,0 v 5.07 a 3.55,3.55 0 0 0 3.53,3.53" fill="#a67ee5" />
    <path d="m 251.89,328.88 a 3.54,3.54 0 0 0 3.53,-3.53 v -5.07 a 3.53,3.53 0 1 0 -7.06,0 v 5.07 a 3.55,3.55 0 0 0 3.53,3.53 z" fill="none" stroke="#ffffff" stroke-miterlimit="10" stroke-width="2" />
    <path d="m 176.35,328.88 a 3.54,3.54 0 0 0 3.53,-3.53 v -5.07 a 3.53,3.53 0 1 0 -7.06,0 v 5.07 a 3.54,3.54 0 0 0 3.53,3.53" fill="#a67ee5" />
    <path d="m 176.35,328.88 a 3.54,3.54 0 0 0 3.53,-3.53 v -5.07 a 3.53,3.53 0 1 0 -7.06,0 v 5.07 a 3.54,3.54 0 0 0 3.53,3.53 z" fill="none" stroke="#ffffff" stroke-miterlimit="10" stroke-width="2" />
    <path d="m 170.92,320.29 h 74.5 a 11.38,11.38 0 0 0 11.35,-11.35 v -66.08 a 11.38,11.38 0 0 0 -11.35,-11.35 h -74.5 a 11.38,11.38 0 0 0 -11.35,11.35 v 66.08 a 11.38,11.38 0 0 0 11.35,11.35" fill="#a67ee5" />
    <rect fill="none" height="88.779999" rx="11.35" stroke="#ffffff" stroke-miterlimit="10" stroke-width="2" width="97.199997" x="159.57001" y="231.50999" />
    <path d="m 199.26,219.15 h 32.4 a 4.09,4.09 0 0 1 4.08,4.08 v 16 a 1.19,1.19 0 0 1 -1.19,1.19 h -2.7 a 1.19,1.19 0 0 1 -1.19,-1.19 v -14.37 a 1.27,1.27 0 0 0 -1.27,-1.27 h -27.86 a 1.27,1.27 0 0 0 -1.27,1.27 v 14.38 a 1.19,1.19 0 0 1 -1.19,1.19 h -2.7 a 1.19,1.19 0 0 1 -1.19,-1.19 v -16 a 4.1,4.1 0 0 1 4.09,-4.08" fill="#a67ee5" />
    <path d="m 199.26,219.15 h 32.4 a 4.09,4.09 0 0 1 4.08,4.08 v 16 a 1.19,1.19 0 0 1 -1.19,1.19 h -2.7 a 1.19,1.19 0 0 1 -1.19,-1.19 v -14.37 a 1.27,1.27 0 0 0 -1.27,-1.27 h -27.86 a 1.27,1.27 0 0 0 -1.27,1.27 v 14.38 a 1.19,1.19 0 0 1 -1.19,1.19 h -2.7 a 1.19,1.19 0 0 1 -1.19,-1.19 v -16 a 4.1,4.1 0 0 1 4.08,-4.09 z" fill="none" stroke="#ffffff" stroke-miterlimit="10" stroke-width="2" />
    <path d="m 185.34,320.29 h 74.5 a 11.38,11.38 0 0 0 11.35,-11.35 v -66.08 a 11.38,11.38 0 0 0 -11.35,-11.35 h -74.5 A 11.38,11.38 0 0 0 174,242.86 v 66.08 a 11.39,11.39 0 0 0 11.35,11.35" fill="#a67ee5" />
    <path d="m 185.34,320.29 h 74.5 a 11.38,11.38 0 0 0 11.35,-11.35 v -66.08 a 11.38,11.38 0 0 0 -11.35,-11.35 h -74.5 A 11.38,11.38 0 0 0 174,242.86 v 66.08 a 11.39,11.39 0 0 0 11.34,11.35 z" fill="none" stroke="#ffffff" stroke-miterlimit="10" stroke-width="2" />
    <path d="m 254.22,252.43 h -63.25 m 63.25,23.47 h -63.25 m 63.25,23.48 h -63.25" fill="none" stroke="#ffffff" stroke-linecap="round" stroke-miterlimit="10" stroke-width="2" />
    <path d="m 168.12,253.68 h 0.67 v 44.46 h -0.67 a 3.53,3.53 0 0 1 -3.52,-3.51 V 257.2 a 3.52,3.52 0 0 1 3.52,-3.52" fill="#a67ee5" />
    <path d="m 168.12,253.68 h 0.67 v 44.46 h -0.67 a 3.53,3.53 0 0 1 -3.52,-3.51 V 257.2 a 3.52,3.52 0 0 1 3.52,-3.52 z" fill="none" stroke="#ffffff" stroke-miterlimit="10" stroke-width="2" />

    <path d="m 215.46,218.86 -55.59,-79.83 m 55.59,79.83 -18.53,-79.83 m 37.06,0 -18.53,79.83 m 55.58,-79.83 -55.58,79.83" fill="none" stroke="#ffffff" stroke-linecap="round" stroke-linejoin="round" stroke-width="2" />
    <path d="M 215.46,83.44 A 55.58,55.58 0 0 1 271,139 c 0,-6.76 -8.3,-12.25 -18.53,-12.25 -10.23,0 -18.31,5.35 -18.52,12 v 0.26 c 0,-6.76 -8.3,-12.25 -18.53,-12.25 -10.23,0 -18.54,5.49 -18.54,12.25 v -0.26 c -0.22,-6.64 -8.42,-12 -18.52,-12 -10.1,0 -18.52,5.49 -18.52,12.25 a 55.58,55.58 0 0 1 55.59,-55.59 m 0,-1.66 a 57.31,57.31 0 0 0 -57.21,57.25 1.66,1.66 0 1 0 3.32,0 c 0,-5.84 7.57,-10.59 16.87,-10.59 9.11,0 16.68,4.66 16.86,10.38 V 139 a 1.66,1.66 0 0 0 3.32,0 c 0,-5.84 7.57,-10.59 16.87,-10.59 9.3,0 16.87,4.75 16.87,10.59 a 1.66,1.66 0 0 0 3.32,0 v -0.21 c 0.18,-5.73 7.74,-10.39 16.86,-10.39 9.3,0 16.87,4.75 16.87,10.59 a 1.66,1.66 0 1 0 3.32,0 57.3,57.3 0 0 0 -57.23,-57.25" fill="#ffffff" />
    <path d="m 215.46,83.44 c 9.92,0 18,20.9 18.54,55.33 0.21,-6.65 8.41,-12 18.52,-12 10.11,0 18.48,5.5 18.48,12.23 A 55.59,55.59 0 0 0 215.41,83.41" fill="#e81a5a" />
    <path d="M 215.45,83.44 A 55.58,55.58 0 0 0 159.87,139 c 0,-6.76 8.3,-12.25 18.52,-12.25 10.22,0 18.3,5.35 18.52,12 0.52,-34.43 8.61,-55.32 18.53,-55.32" fill="#fe6183" />
    <path d="m 215.46,83.44 c -9.93,0 -18,20.9 -18.54,55.32 v 0.26 c 0,-6.76 8.3,-12.25 18.53,-12.25 10.23,0 18.55,5.5 18.55,12.23 v -0.26 c -0.51,-34.43 -8.6,-55.33 -18.52,-55.33" fill="#f7396b" />
  </g>

  <g id="pink-leaf">
    <animateTransform
      attributeName="transform"
      type="rotate"
      values="0 245 327; 3 245 327; -13 245 327; 0 245 327; -2 245 327; 0 245 327; 0 245 327"
      calcMode="spline"
      keySplines="0.4, 0, 0.65, 1.0; 0.4, 0, 0.65, 1.0; 0.4, 0, 0.65, 1.0; 0.4, 0, 0.65, 1.0; 0.4, 0, 0.65, 1.0; 0.4, 0, 0.65, 1.0"
      dur="2.6s"
      repeatCount="indefinite"
    />

    <path d="M322.92 283.4a2.14 2.14 0 01.55 2.17c-1.06 3.43-4.58 12.85-12.1 16.34-5.13 2.38-8.33-2.7-10.92.77s2.1 5 6.92 4.31a2.16 2.16 0 012.14 3.34 14.34 14.34 0 01-11.73 6.67c-10.84.27-12.55-11.58-14.57-10.19-2.72 1.89 1.27 6.55 4.39 9.57a2.16 2.16 0 01-1.3 3.71c-8.76.84-19.72-3.51-19.8-15-.08-12.94-4.25-11.8-5.11-18.35-.91-6.88 3.88-14.88 13.74-16.69a2.16 2.16 0 012.31 3.11c-2.41 4.73-6 12.6-2.82 12.56 3.46 0-1.58-22.58 28.43-15.26a2.16 2.16 0 011.09 3.54l-.1.11a2.16 2.16 0 002.41 3.45c3.66-1.52 9.16-1.27 16.47 5.84" fill="#fe6183"/>
    <path d="M245.13 327.88s3.48-30.11 21.7-30.11" fill="none" stroke="#fe6183" stroke-miterlimit="10" stroke-width="2"/>
  </g>
  <path fill="none" stroke="#fff" stroke-width="2" d="M41.13 329h278"/>
</svg>