<svg xmlns="http://www.w3.org/2000/svg" viewBox="0 0 350 330"><path d="M253.93 232.11a5.69 5.69 0 10-5.69-5.69 5.69 5.69 0 005.69 5.69" fill="#a67ee5"/><circle cx="253.93" cy="226.42" r="5.69" fill="none" stroke="#fff" stroke-miterlimit="10" stroke-width="2"/><path d="M240.3 210.48H67.19a12 12 0 00-12 11.9V276a13 13 0 0013 13h184v-66.62a12 12 0 00-11.94-11.9" fill="#a67ee5"/><path d="M240.3 210.48H67.19a12 12 0 00-12 11.9V276a13 13 0 0013 13h184v-66.62a12 12 0 00-11.89-11.9z" fill="none" stroke="#fff" stroke-miterlimit="10" stroke-width="2"/><path d="M70.24 289v-63.51a15 15 0 0115-15h.5" fill="none" stroke="#fff" stroke-width="2"/><path d="M180.73 277.8s8.3-74.59 39.71-90" fill="none" stroke="#fff" stroke-linecap="round" stroke-linejoin="round" stroke-width="2"/><path d="M217.95 187.12l9.27-24.49a22 22 0 018.72 3 7.87 7.87 0 019.72 12.33 22.14 22.14 0 01.86 9.18l-26 3.3a2.45 2.45 0 01-2.6-3.29" fill="#3b7bf2"/><path d="M178.24 287.63s6.89-44.68 37.95-56.53" fill="none" stroke="#fff" stroke-linecap="round" stroke-linejoin="round" stroke-width="2"/><path d="M210.85 232l9-16.47a16.66 16.66 0 016.13 2.93 5.93 5.93 0 014-.42 5.67 5.67 0 014.26 6.85 5.54 5.54 0 01-2.29 3.23 15.1 15.1 0 01-.21 6.58l-19.34-.11a1.76 1.76 0 01-1.6-2.58" fill="#3b7bf2"/><path d="M106.58 161.87l-2.19 3.79a1.34 1.34 0 001.17 2h4.37a1.34 1.34 0 001.16-2l-2.18-3.79a1.35 1.35 0 00-2.33 0" fill="#fff"/><path d="M107.74 79.42a32.91 32.91 0 0132.9 32.89c0 18.17-15.09 48.89-33.25 48.89s-32.55-30.73-32.55-48.89a32.91 32.91 0 0132.9-32.89m0-1.61a34.54 34.54 0 00-34.5 34.5c0 9.51 3.8 22.1 9.68 32.07 7 11.88 15.68 18.42 24.46 18.42s17.6-6.54 24.81-18.4c6.1-10 10.05-22.64 10.05-32.09a34.54 34.54 0 00-34.5-34.5" fill="#fff"/><path d="M96.06 112.39c0-18.16 5.23-32.89 11.68-32.89a32.91 32.91 0 00-32.9 32.89c0 18.17 14.38 48.89 32.55 48.89h.17c-6.43-.19-11.5-30.77-11.5-48.89" fill="#76abff"/><path d="M140.64 112.39a32.91 32.91 0 00-32.9-32.89c6.45 0 11.68 14.73 11.68 32.89s-5.29 48.48-11.68 48.87c18-.39 32.9-30.82 32.9-48.87" fill="#1553b7"/><path d="M119.42 112.39c0-18.16-5.23-32.89-11.68-32.89s-11.68 14.73-11.68 32.89 5.07 48.69 11.5 48.89h.18c6.39-.4 11.68-30.83 11.68-48.88" fill="#3b7bf2"/><path d="M100.54 105.36a5.7 5.7 0 105.7 5.7 5.39 5.39 0 00-5.7-5.7m0 8c-1.86 0-3.06-.93-3.06-2.29s1.21-2.29 3.06-2.29 3.07.93 3.07 2.29-1.25 2.29-3.07 2.29m14.2-8a1.78 1.78 0 011.46 2.8l-13.33 19.34a1.79 1.79 0 01-2.94-2l13.34-19.34a1.77 1.77 0 011.47-.77m1.47 11.49a5.7 5.7 0 105.7 5.7 5.4 5.4 0 00-5.7-5.7m0 8c-1.86 0-3.06-.93-3.06-2.29s1.21-2.29 3.06-2.29 3.07.9 3.07 2.29-1.21 2.29-3.07 2.29" fill="#fff"/><path fill="none" stroke="#fff" stroke-linecap="round" stroke-miterlimit="10" stroke-width="2" d="M107.65 166.71v122.31"/><path d="M280.29 318.62a5.72 5.72 0 10-5.12-5.69 5.43 5.43 0 005.12 5.69" fill="#a67ee5"/><ellipse cx="280.29" cy="312.93" rx="5.12" ry="5.69" fill="none" stroke="#fff" stroke-miterlimit="10" stroke-width="2"/><path d="M230.22 328.86h-148a11.85 11.85 0 01-11.95-11.67V289h171.89v28.17a11.84 11.84 0 01-11.94 11.67" fill="#a67ee5"/><path d="M230.22 328.86h-148a11.85 11.85 0 01-11.95-11.67V289h171.89v28.17a11.84 11.84 0 01-11.94 11.69z" fill="none" stroke="#fff" stroke-miterlimit="10" stroke-width="2"/><path d="M266.72 328.86h-147a11.81 11.81 0 01-11.87-11.67V289h170.73v28.17a11.79 11.79 0 01-11.86 11.67" fill="#a67ee5"/><path d="M266.72 328.86h-147a11.81 11.81 0 01-11.87-11.67V289h170.73v28.17a11.79 11.79 0 01-11.86 11.69z" fill="none" stroke="#fff" stroke-miterlimit="10" stroke-width="2"/><path d="M215 314.07h-34.51a4.27 4.27 0 01-4.35-4.16v-11.7a1.24 1.24 0 011.27-1.22h2.88a1.25 1.25 0 011.27 1.22v10a1.33 1.33 0 001.35 1.29h29.71a1.33 1.33 0 001.35-1.29v-10a1.24 1.24 0 011.27-1.22h2.88a1.25 1.25 0 011.27 1.22v11.69a4.27 4.27 0 01-4.35 4.16" fill="#a67ee5"/><path d="M215 314.07h-34.51a4.27 4.27 0 01-4.35-4.16v-11.7a1.24 1.24 0 011.27-1.22h2.88a1.25 1.25 0 011.27 1.22v10a1.33 1.33 0 001.35 1.29h29.71a1.33 1.33 0 001.35-1.29v-10a1.24 1.24 0 011.27-1.22h2.88a1.25 1.25 0 011.27 1.22v11.69a4.27 4.27 0 01-4.39 4.17z" fill="none" stroke="#fff" stroke-miterlimit="10" stroke-width="2"/><path fill="#a67ee5" d="M138.58 282.19h9.1v12.52h-9.1z"/><path fill="none" stroke="#fff" stroke-miterlimit="10" stroke-width="2" d="M138.58 282.19h9.1v12.52h-9.1z"/><path fill="#a67ee5" d="M247.85 282.19h9.1v12.52h-9.1z"/><path fill="none" stroke="#fff" stroke-miterlimit="10" stroke-width="2" d="M247.85 282.19h9.1v12.52h-9.1z"/><path d="M278.58 317.11v-9.87h-10.4a5.67 5.67 0 00-5.53 5.8v15.82h4.73c6.16 0 11.2-5.29 11.2-11.75" fill="#a67ee5"/><path d="M278.58 317.11v-9.87h-10.4a5.67 5.67 0 00-5.53 5.8v15.82h4.73c6.16 0 11.2-5.28 11.2-11.75z" fill="none" stroke="#fff" stroke-miterlimit="10" stroke-width="2"/><path d="M100 301.54H79.22a1 1 0 01-1-1V298a1 1 0 011-1H100a1 1 0 011 1v2.58a1 1 0 01-1 1" fill="#a67ee5"/><path d="M100 301.54H79.22a1 1 0 01-1-1V298a1 1 0 011-1H100a1 1 0 011 1v2.58a1 1 0 01-1 .96z" fill="none" stroke="#fff" stroke-miterlimit="10" stroke-width="2"/><g fill="#fff"><path d="M279.2 183.8a4.89 4.89 0 013.8-4.8l21.07-5.4c-7.78 14.84-19.18 15.07-20 15.07a4.9 4.9 0 01-4.85-4.9"/><path d="M262.24 169.86H273a4.65 4.65 0 014.41-2.9 3.91 3.91 0 013.48 1.76 13.39 13.39 0 011.37 2.59c.63 1.57 4 15.8 5.89 19.16 1.1 2 4.39 7.16 4.39 7.16a2.3 2.3 0 01.31 1.15V208s-3.11-1.08-3.11-3.91v-6.53c-1.91.27-6-1.65-8.33-2.88a12.82 12.82 0 01-6.36-6.76 12.33 12.33 0 01-.11-9.16 7.13 7.13 0 00.79-2.91c-.06-1.14-1.39-2.72-2.18-4.05z"/></g><path d="M141.77 204.16c24.1 32.45 35.81 84 35.81 84" fill="none" stroke="#3b7bf2" stroke-linecap="round" stroke-linejoin="round" stroke-width="2"/><path d="M125.73 196.22c6.54 7.51 17.16 9 17.16 9s0-10.72-6.53-18.22-17.17-9-17.17-9 0 10.72 6.54 18.22" fill="#76abff"/><path d="M153.17 206.54c-2.69 9.58 1.91 19.27 1.91 19.27s9-5.86 11.67-15.45-1.91-19.27-1.91-19.27-9 5.86-11.67 15.45" fill="#3b7bf2"/><path d="M135.82 227.71c9.59 2.7 19.26-1.91 19.26-1.91s-5.86-9-15.45-11.67-19.26 1.87-19.26 1.87 5.87 9 15.45 11.67" fill="#3b7bf2"/><path d="M166.1 232.52c-3.41 9.36.47 19.35.47 19.35s9.39-5.18 12.79-14.53-.47-19.34-.47-19.34-9.39 5.18-12.79 14.53m-18.88 19.82c9.36 3.4 19.35-.47 19.35-.47s-5.18-9.39-14.54-12.79-19.35.47-19.35.47 5.18 9.39 14.54 12.79" fill="#1553b7"/><path d="M183.79 264.77c2.3 9.1-2.27 18.12-2.27 18.12s-8.32-5.74-10.63-14.85 2.27-18.12 2.27-18.12 8.32 5.75 10.63 14.85" fill="#3b7bf2"/><path d="M199.63 285.16c-9.11 2.31-18.12-2.27-18.12-2.27s5.74-8.32 14.85-10.63 18.12 2.27 18.12 2.27-5.75 8.32-14.85 10.63" fill="#3b7bf2"/><path d="M188.56 271.67a144.15 144.15 0 00-10.31 16.61" fill="none" stroke="#3b7bf2" stroke-linecap="round" stroke-linejoin="round" stroke-width="2"/><path d="M203.69 264.19c-6.17 7.08-16.19 8.44-16.19 8.44s0-10.11 6.16-17.18 16.19-8.45 16.19-8.45 0 10.11-6.16 17.19" fill="#76abff"/><path fill="none" stroke="#fff" stroke-linecap="round" stroke-linejoin="round" stroke-width="2" d="M46.24 329h257.52"/></svg>