<svg xmlns="http://www.w3.org/2000/svg" viewBox="0 0 350 330"><defs><clipPath id="a"><path d="M275 225.43h-17.13a17.6 17.6 0 01-17.52-17.58V170a17.6 17.6 0 0117.52-17.58H275A17.6 17.6 0 01292.51 170v37.83a17.61 17.61 0 01-17.51 17.6z"/></clipPath></defs><g fill="#fff"><path d="M91.14 327.79a2.2 2.2 0 01-2-2.36l13.66-193.17c1.1-15.49-4.8-21.92-8.75-24.47a1.35 1.35 0 01.53-2.45C103 104 122.18 104 120 134.19l-13.57 192.48a2.2 2.2 0 01-2.35 2z"/><path d="M124.5 328.17a2.2 2.2 0 01-2.17-2.23l2.24-193.63c.19-15.53-6.07-21.61-10.16-23.91a1.35 1.35 0 01.39-2.47c8.36-1.9 27.49-3 27.15 27.28l-2.25 192.93a2.2 2.2 0 01-2.22 2.18z"/></g><path d="M275 225.43h-17.13a17.6 17.6 0 01-17.52-17.58V170a17.6 17.6 0 0117.52-17.58H275A17.6 17.6 0 01292.51 170v37.83a17.61 17.61 0 01-17.51 17.6z" fill="none" stroke="#fff" stroke-width="2"/><g fill="none" stroke="#fff" stroke-linecap="round" stroke-miterlimit="10" stroke-width="2" clip-path="url(#a)"><path d="M248.18 198.34h62.91M221 188.08h35.29a12.4 12.4 0 1124.8 0h17.93m139.17-4.36h39.78m-19.99-10.27h-27.36a12.4 12.4 0 10-24.8 0h-17.94m78.36 0h22.19"/></g><path d="M257.5 259.82h-60.74v-14.19h55.09a9.92 9.92 0 019.9 9.93 4.26 4.26 0 01-4.25 4.25" fill="#a67ee5"/><path d="M257.5 259.82h-60.74v-14.19h55.09a9.92 9.92 0 019.9 9.93 4.26 4.26 0 01-4.25 4.26z" fill="none" stroke="#fff" stroke-miterlimit="10" stroke-width="2"/><path fill="#a67ee5" d="M185.47 328.31H171.5l-6.31-41.59h13.97l6.31 41.59z"/><path fill="none" stroke="#fff" stroke-miterlimit="10" stroke-width="2" d="M185.47 328.31H171.5l-6.31-41.59h13.97l6.31 41.59z"/><path fill="#a67ee5" d="M235.03 328.31h-13.97l-6.3-41.59h13.96l6.31 41.59z"/><path fill="none" stroke="#fff" stroke-miterlimit="10" stroke-width="2" d="M235.03 328.31h-13.97l-6.3-41.59h13.96l6.31 41.59z"/><path d="M281.33 272.45h-55.89a5.59 5.59 0 01-5.53-4.77l-10.86-72.24a17.71 17.71 0 00-12.49-31.31h-55.08L141.16 267l15.77 23.35 47.19 8.39a12.3 12.3 0 004.22.75h73a13.53 13.53 0 000-27.06" fill="#a67ee5"/><path d="M281.33 272.45h-55.89a5.59 5.59 0 01-5.53-4.77l-10.86-72.24a17.71 17.71 0 00-12.49-31.31h-55.08L141.16 267l15.77 23.35 47.19 8.39a12.3 12.3 0 004.22.75h73a13.53 13.53 0 00-.01-27.04z" fill="none" stroke="#fff" stroke-miterlimit="10" stroke-width="2"/><path d="M162.42 267.69l-10.86-72.24a17.71 17.71 0 10-29-13.61 18 18 0 00.79 5.25L138.65 289a12.36 12.36 0 0012.21 10.54h73a13.53 13.53 0 000-27.05h-55.91a5.62 5.62 0 01-5.53-4.78" fill="#a67ee5"/><path d="M162.42 267.69l-10.86-72.24a17.71 17.71 0 10-29-13.61 18 18 0 00.79 5.25L138.65 289a12.36 12.36 0 0012.21 10.54h73a13.53 13.53 0 000-27.05h-55.91a5.62 5.62 0 01-5.53-4.8z" fill="none" stroke="#fff" stroke-miterlimit="10" stroke-width="2"/><path d="M206.26 259.82h-72l-2.13-14.19h68.47a9.92 9.92 0 019.9 9.93 4.26 4.26 0 01-4.25 4.25" fill="#a67ee5"/><path d="M206.26 259.82h-72l-2.13-14.19h68.47a9.92 9.92 0 019.9 9.93 4.26 4.26 0 01-4.24 4.26z" fill="none" stroke="#fff" stroke-miterlimit="10" stroke-width="2"/><path fill="none" stroke="#fff" stroke-linecap="round" stroke-miterlimit="10" stroke-width="2" d="M151.57 195.44h57.48"/><path d="M79.18 194a131 131 0 0115.59 26.9 255 255 0 01-20.08-23.55 259 259 0 01-17.07-25.88A131.72 131.72 0 0179.18 194m1.76 20.39a127.19 127.19 0 0122.8 20.49 242.09 242.09 0 01-25.84-15.71 235.86 235.86 0 01-23.42-18.7 119.82 119.82 0 0126.46 13.92m12.72-8.91a258.38 258.38 0 0010.08 29.39 125.63 125.63 0 00-4.5-30.52 135.9 135.9 0 00-12.06-29.44 260.33 260.33 0 006.47 30.57" fill="#36e69a"/><path d="M107.32 213.52a250.14 250.14 0 002.06 30.67 119.93 119.93 0 003.76-30.05 131.24 131.24 0 00-4-31.36 238.1 238.1 0 00-1.87 30.74m-24.19 16.04a121.93 121.93 0 0126.29 14.64 225.91 225.91 0 01-28.16-9.2 228.11 228.11 0 01-26.37-12.69 113.61 113.61 0 0128.25 7.29m4.97 14.23A118.11 118.11 0 01115.62 255a211 211 0 01-28.78-5.6 220.87 220.87 0 01-27.42-9.33 114 114 0 0128.65 3.73" fill="#25b774"/><path d="M118.71 224.79a238 238 0 00-3.1 30.25 117.11 117.11 0 008.82-28.54 127.44 127.44 0 001.42-31.19 213.92 213.92 0 00-7.15 29.48" fill="#25b774"/><path d="M98.86 262a118.24 118.24 0 0127.07 12.34 212.3 212.3 0 01-28.53-6.79 220.78 220.78 0 01-27-10.45 114.06 114.06 0 0128.46 4.9m31.41-17.71a236.56 236.56 0 00-4.34 30.1 116.94 116.94 0 0010-28.16 127.42 127.42 0 002.71-31.1 214.43 214.43 0 00-8.36 29.16m-21.38 36.4a118.21 118.21 0 0126.54 13.47 213.62 213.62 0 01-28.23-8 221.65 221.65 0 01-26.55-11.57 113.82 113.82 0 0128.24 6.08" fill="#068e4d"/><path d="M141 264.26a236.09 236.09 0 00-5.58 29.9 117.46 117.46 0 0011.15-27.73 127.2 127.2 0 004-31 214.24 214.24 0 00-9.57 28.83" fill="#068e4d"/><path d="M92.62 217.67A529.26 529.26 0 01149.48 328" fill="none" stroke="#36e69a" stroke-linecap="round" stroke-linejoin="round" stroke-width="2"/><path fill="none" stroke="#fff" stroke-linecap="round" stroke-miterlimit="10" stroke-width="2" d="M72.03 329h223.49"/></svg>